<svg width="256" height="256" viewBox="0 0 256 256" fill="none" xmlns="http://www.w3.org/2000/svg">
<g clip-path="url(#clip0)">
<path d="M128.008 16C149.225 16.0001 169.573 24.4288 184.576 39.4316C199.579 54.4345 208.008 74.7828 208.008 96V97.3701C213.347 99.256 217.848 102.969 220.714 107.853C223.58 112.736 224.626 118.477 223.669 124.059C222.711 129.64 219.811 134.702 215.481 138.352C211.151 142.001 205.67 144.002 200.008 144H196.718L141.897 239.94C140.498 242.388 138.475 244.423 136.036 245.838C133.597 247.253 130.828 247.998 128.008 247.998C125.188 247.998 122.418 247.253 119.979 245.838C117.539 244.423 115.517 242.388 114.117 239.94L59.2969 144H56.0078C50.345 144.002 44.8633 142.001 40.5332 138.352C36.2033 134.702 33.3033 129.64 32.3457 124.059C31.3882 118.477 32.4347 112.736 35.3008 107.853C38.1669 102.969 42.6684 99.256 48.0078 97.3701V96C48.0078 74.7828 56.4357 54.4345 71.4385 39.4316C86.4414 24.4287 106.79 16 128.008 16ZM128 232L137.68 215.06L97.0703 144H77.71L128 232ZM146.89 198.94L156.54 182.06L134.79 144H115.5L146.89 198.94ZM165.71 165.94L178.29 144H153.21L165.71 165.94ZM112 87C112 91.2435 113.686 95.3129 116.687 98.3135C119.687 101.314 123.757 103 128 103C132.243 103 136.313 101.314 139.313 98.3135C142.314 95.3129 144 91.2435 144 87H112ZM90 67C84.4772 67 80 71.4772 80 77C80 82.5228 84.4772 87 90 87C95.5228 87 100 82.5228 100 77C100 71.4772 95.5228 67 90 67ZM166 67C160.477 67 156 71.4772 156 77C156 82.5228 160.477 87 166 87C171.523 87 176 82.5228 176 77C176 71.4772 171.523 67 166 67Z" fill="currentColor"/>
</g>
<defs>
<clipPath id="clip0">
<rect width="256" height="256" fill="white"/>
</clipPath>
</defs>
</svg>
